<svg xmlns="http://www.w3.org/2000/svg" viewBox="0 0 800 500" role="img" aria-label="Demo dog portrait">
  <defs>
    <linearGradient id="bg" x1="0" x2="1" y1="0" y2="1">
      <stop offset="0" stop-color="#e8f3ec"/>
      <stop offset="1" stop-color="#f8e1e1"/>
    </linearGradient>
  </defs>
  <rect width="800" height="500" fill="url(#bg)"/>
  <ellipse cx="400" cy="392" rx="230" ry="48" fill="#2f6f5e" opacity=".14"/>
  <circle cx="400" cy="270" r="118" fill="#ffffff"/>
  <path d="M308 218c-47-25-88-20-122 15 35 14 58 45 72 93Zm184 0c47-25 88-20 122 15-35 14-58 45-72 93Z" fill="#f2f0ea"/>
  <path d="M340 202c23-26 98-26 120 0-37-11-83-11-120 0Z" fill="#d7c3ad"/>
  <circle cx="354" cy="272" r="14" fill="#15221e"/>
  <circle cx="446" cy="272" r="14" fill="#15221e"/>
  <path d="M383 315c0-12 34-12 34 0 0 13-17 22-17 22s-17-9-17-22Z" fill="#2c211a"/>
  <path d="M356 351c28 20 60 20 88 0" fill="none" stroke="#6f5647" stroke-width="11" stroke-linecap="round"/>
</svg>
