<svg xmlns="http://www.w3.org/2000/svg" viewBox="0 0 800 500" role="img" aria-label="Demo dog portrait">
  <defs>
    <linearGradient id="bg" x1="0" x2="1" y1="0" y2="1">
      <stop offset="0" stop-color="#f6ead7"/>
      <stop offset="1" stop-color="#dbece7"/>
    </linearGradient>
  </defs>
  <rect width="800" height="500" fill="url(#bg)"/>
  <path d="M0 360c140-40 260-22 392-36 135-14 261-54 408-4v180H0Z" fill="#94b88b" opacity=".3"/>
  <circle cx="400" cy="265" r="128" fill="#efe1ce"/>
  <path d="M295 186c-50-60-97-72-139-36 59 38 89 88 105 151Zm210 0c50-60 97-72 139-36-59 38-89 88-105 151Z" fill="#7c4a2e"/>
  <path d="M387 137c66 5 111 43 128 103-52-8-92-40-128-103Z" fill="#7c4a2e"/>
  <circle cx="351" cy="269" r="15" fill="#15221e"/>
  <circle cx="449" cy="269" r="15" fill="#15221e"/>
  <path d="M382 316c0-12 36-12 36 0 0 14-18 23-18 23s-18-9-18-23Z" fill="#2c211a"/>
  <path d="M354 352c29 22 63 22 92 0" fill="none" stroke="#7d5b48" stroke-width="12" stroke-linecap="round"/>
</svg>
